<?xml version="1.0" encoding="UTF-8" standalone="no"?>
<!DOCTYPE svg PUBLIC "-//W3C//DTD SVG 1.1//EN"
 "http://www.w3.org/Graphics/SVG/1.1/DTD/svg11.dtd">
<!-- Generated by graphviz version 7.1.0 (20230121.1956)
 -->
<!-- Pages: 1 -->
<svg width="764pt" height="476pt"
 viewBox="0.00 0.00 764.17 476.00" xmlns="http://www.w3.org/2000/svg" xmlns:xlink="http://www.w3.org/1999/xlink">
<g id="graph0" class="graph" transform="scale(1 1) rotate(0) translate(4 472)">
<polygon fill="white" stroke="none" points="-4,4 -4,-472 760.17,-472 760.17,4 -4,4"/>
<!-- [root] aws_instance.public_instance (expand) -->
<g id="node1" class="node">
<title>[root] aws_instance.public_instance (expand)</title>
<polygon fill="none" stroke="black" points="429.19,-324 252.19,-324 252.19,-288 429.19,-288 429.19,-324"/>
<text text-anchor="middle" x="340.69" y="-302.3" font-family="Times,serif" font-size="14.00">aws_instance.public_instance</text>
</g>
<!-- [root] aws_subnet.public_subnet (expand) -->
<g id="node3" class="node">
<title>[root] aws_subnet.public_subnet (expand)</title>
<polygon fill="none" stroke="black" points="598.19,-252 439.19,-252 439.19,-216 598.19,-216 598.19,-252"/>
<text text-anchor="middle" x="518.69" y="-230.3" font-family="Times,serif" font-size="14.00">aws_subnet.public_subnet</text>
</g>
<!-- [root] aws_instance.public_instance (expand)&#45;&gt;[root] aws_subnet.public_subnet (expand) -->
<g id="edge1" class="edge">
<title>[root] aws_instance.public_instance (expand)&#45;&gt;[root] aws_subnet.public_subnet (expand)</title>
<path fill="none" stroke="black" d="M385.15,-287.52C409.02,-278.13 438.66,-266.47 463.95,-256.53"/>
<polygon fill="black" stroke="black" points="465.05,-259.85 473.08,-252.94 462.49,-253.34 465.05,-259.85"/>
</g>
<!-- [root] data.aws_key_pair.key (expand) -->
<g id="node5" class="node">
<title>[root] data.aws_key_pair.key (expand)</title>
<polygon fill="none" stroke="black" points="410.69,-252 270.69,-252 270.69,-216 410.69,-216 410.69,-252"/>
<text text-anchor="middle" x="340.69" y="-230.3" font-family="Times,serif" font-size="14.00">data.aws_key_pair.key</text>
</g>
<!-- [root] aws_instance.public_instance (expand)&#45;&gt;[root] data.aws_key_pair.key (expand) -->
<g id="edge2" class="edge">
<title>[root] aws_instance.public_instance (expand)&#45;&gt;[root] data.aws_key_pair.key (expand)</title>
<path fill="none" stroke="black" d="M340.69,-287.7C340.69,-280.41 340.69,-271.73 340.69,-263.54"/>
<polygon fill="black" stroke="black" points="344.19,-263.62 340.69,-253.62 337.19,-263.62 344.19,-263.62"/>
</g>
<!-- [root] aws_subnet.private_subnet (expand) -->
<g id="node2" class="node">
<title>[root] aws_subnet.private_subnet (expand)</title>
<polygon fill="none" stroke="black" points="610.19,-324 447.19,-324 447.19,-288 610.19,-288 610.19,-324"/>
<text text-anchor="middle" x="528.69" y="-302.3" font-family="Times,serif" font-size="14.00">aws_subnet.private_subnet</text>
</g>
<!-- [root] aws_subnet.private_subnet (expand)&#45;&gt;[root] aws_subnet.public_subnet (expand) -->
<g id="edge3" class="edge">
<title>[root] aws_subnet.private_subnet (expand)&#45;&gt;[root] aws_subnet.public_subnet (expand)</title>
<path fill="none" stroke="black" d="M526.22,-287.7C525.16,-280.32 523.91,-271.52 522.72,-263.25"/>
<polygon fill="black" stroke="black" points="526.22,-263.01 521.34,-253.6 519.29,-264 526.22,-263.01"/>
</g>
<!-- [root] aws_vpc.vpc_virginia (expand) -->
<g id="node4" class="node">
<title>[root] aws_vpc.vpc_virginia (expand)</title>
<polygon fill="none" stroke="black" points="650.69,-180 514.69,-180 514.69,-144 650.69,-144 650.69,-180"/>
<text text-anchor="middle" x="582.69" y="-158.3" font-family="Times,serif" font-size="14.00">aws_vpc.vpc_virginia</text>
</g>
<!-- [root] aws_subnet.public_subnet (expand)&#45;&gt;[root] aws_vpc.vpc_virginia (expand) -->
<g id="edge4" class="edge">
<title>[root] aws_subnet.public_subnet (expand)&#45;&gt;[root] aws_vpc.vpc_virginia (expand)</title>
<path fill="none" stroke="black" d="M534.51,-215.7C542.03,-207.47 551.16,-197.48 559.45,-188.42"/>
<polygon fill="black" stroke="black" points="561.86,-190.96 566.03,-181.22 556.7,-186.24 561.86,-190.96"/>
</g>
<!-- [root] var.subnets -->
<g id="node7" class="node">
<title>[root] var.subnets</title>
<polygon fill="none" stroke="black" points="490.19,-180 419.19,-180 419.19,-144 496.19,-144 496.19,-174 490.19,-180"/>
<polyline fill="none" stroke="black" points="490.19,-180 490.19,-174"/>
<polyline fill="none" stroke="black" points="496.19,-174 490.19,-174"/>
<text text-anchor="middle" x="457.69" y="-158.3" font-family="Times,serif" font-size="14.00">var.subnets</text>
</g>
<!-- [root] aws_subnet.public_subnet (expand)&#45;&gt;[root] var.subnets -->
<g id="edge5" class="edge">
<title>[root] aws_subnet.public_subnet (expand)&#45;&gt;[root] var.subnets</title>
<path fill="none" stroke="black" d="M503.61,-215.7C496.52,-207.56 487.92,-197.69 480.08,-188.7"/>
<polygon fill="black" stroke="black" points="482.8,-186.49 473.59,-181.25 477.52,-191.08 482.8,-186.49"/>
</g>
<!-- [root] provider[&quot;registry.terraform.io/hashicorp/aws&quot;] -->
<g id="node6" class="node">
<title>[root] provider[&quot;registry.terraform.io/hashicorp/aws&quot;]</title>
<polygon fill="none" stroke="black" points="340.69,-108 88.15,-90 340.69,-72 593.22,-90 340.69,-108"/>
<text text-anchor="middle" x="340.69" y="-86.3" font-family="Times,serif" font-size="14.00">provider[&quot;registry.terraform.io/hashicorp/aws&quot;]</text>
</g>
<!-- [root] aws_vpc.vpc_virginia (expand)&#45;&gt;[root] provider[&quot;registry.terraform.io/hashicorp/aws&quot;] -->
<g id="edge6" class="edge">
<title>[root] aws_vpc.vpc_virginia (expand)&#45;&gt;[root] provider[&quot;registry.terraform.io/hashicorp/aws&quot;]</title>
<path fill="none" stroke="black" d="M522.24,-143.52C484.78,-132.68 436.89,-118.83 399.7,-108.07"/>
<polygon fill="black" stroke="black" points="401.05,-104.82 390.47,-105.4 399.1,-111.54 401.05,-104.82"/>
</g>
<!-- [root] var.virginia_cidr -->
<g id="node9" class="node">
<title>[root] var.virginia_cidr</title>
<polygon fill="none" stroke="black" points="712.19,-108 611.19,-108 611.19,-72 718.19,-72 718.19,-102 712.19,-108"/>
<polyline fill="none" stroke="black" points="712.19,-108 712.19,-102"/>
<polyline fill="none" stroke="black" points="718.19,-102 712.19,-102"/>
<text text-anchor="middle" x="664.69" y="-86.3" font-family="Times,serif" font-size="14.00">var.virginia_cidr</text>
</g>
<!-- [root] aws_vpc.vpc_virginia (expand)&#45;&gt;[root] var.virginia_cidr -->
<g id="edge7" class="edge">
<title>[root] aws_vpc.vpc_virginia (expand)&#45;&gt;[root] var.virginia_cidr</title>
<path fill="none" stroke="black" d="M602.96,-143.7C612.81,-135.28 624.84,-125.02 635.65,-115.79"/>
<polygon fill="black" stroke="black" points="637.88,-118.48 643.22,-109.33 633.34,-113.16 637.88,-118.48"/>
</g>
<!-- [root] data.aws_key_pair.key (expand)&#45;&gt;[root] provider[&quot;registry.terraform.io/hashicorp/aws&quot;] -->
<g id="edge8" class="edge">
<title>[root] data.aws_key_pair.key (expand)&#45;&gt;[root] provider[&quot;registry.terraform.io/hashicorp/aws&quot;]</title>
<path fill="none" stroke="black" d="M340.69,-215.59C340.69,-191.61 340.69,-148.14 340.69,-119.42"/>
<polygon fill="black" stroke="black" points="344.19,-119.62 340.69,-109.62 337.19,-119.62 344.19,-119.62"/>
</g>
<!-- [root] var.tags -->
<g id="node8" class="node">
<title>[root] var.tags</title>
<polygon fill="none" stroke="black" points="364.19,-36 311.19,-36 311.19,0 370.19,0 370.19,-30 364.19,-36"/>
<polyline fill="none" stroke="black" points="364.19,-36 364.19,-30"/>
<polyline fill="none" stroke="black" points="370.19,-30 364.19,-30"/>
<text text-anchor="middle" x="340.69" y="-14.3" font-family="Times,serif" font-size="14.00">var.tags</text>
</g>
<!-- [root] provider[&quot;registry.terraform.io/hashicorp/aws&quot;]&#45;&gt;[root] var.tags -->
<g id="edge12" class="edge">
<title>[root] provider[&quot;registry.terraform.io/hashicorp/aws&quot;]&#45;&gt;[root] var.tags</title>
<path fill="none" stroke="black" d="M340.69,-71.7C340.69,-64.41 340.69,-55.73 340.69,-47.54"/>
<polygon fill="black" stroke="black" points="344.19,-47.62 340.69,-37.62 337.19,-47.62 344.19,-47.62"/>
</g>
<!-- [root] output.ec2_public_ip (expand) -->
<g id="node10" class="node">
<title>[root] output.ec2_public_ip (expand)</title>
<ellipse fill="none" stroke="black" cx="141.69" cy="-378" rx="141.88" ry="18"/>
<text text-anchor="middle" x="141.69" y="-374.3" font-family="Times,serif" font-size="14.00">[root] output.ec2_public_ip (expand)</text>
</g>
<!-- [root] output.ec2_public_ip (expand)&#45;&gt;[root] aws_instance.public_instance (expand) -->
<g id="edge9" class="edge">
<title>[root] output.ec2_public_ip (expand)&#45;&gt;[root] aws_instance.public_instance (expand)</title>
<path fill="none" stroke="black" d="M188.34,-360.59C215.87,-350.91 250.99,-338.55 280.57,-328.15"/>
<polygon fill="black" stroke="black" points="281.5,-331.53 289.77,-324.91 279.17,-324.93 281.5,-331.53"/>
</g>
<!-- [root] provider[&quot;registry.terraform.io/hashicorp/aws&quot;] (close) -->
<g id="node11" class="node">
<title>[root] provider[&quot;registry.terraform.io/hashicorp/aws&quot;] (close)</title>
<ellipse fill="none" stroke="black" cx="528.69" cy="-378" rx="227.46" ry="18"/>
<text text-anchor="middle" x="528.69" y="-374.3" font-family="Times,serif" font-size="14.00">[root] provider[&quot;registry.terraform.io/hashicorp/aws&quot;] (close)</text>
</g>
<!-- [root] provider[&quot;registry.terraform.io/hashicorp/aws&quot;] (close)&#45;&gt;[root] aws_instance.public_instance (expand) -->
<g id="edge10" class="edge">
<title>[root] provider[&quot;registry.terraform.io/hashicorp/aws&quot;] (close)&#45;&gt;[root] aws_instance.public_instance (expand)</title>
<path fill="none" stroke="black" d="M483.18,-360.05C457.56,-350.52 425.33,-338.52 398.01,-328.34"/>
<polygon fill="black" stroke="black" points="399.42,-325.14 388.83,-324.93 396.98,-331.7 399.42,-325.14"/>
</g>
<!-- [root] provider[&quot;registry.terraform.io/hashicorp/aws&quot;] (close)&#45;&gt;[root] aws_subnet.private_subnet (expand) -->
<g id="edge11" class="edge">
<title>[root] provider[&quot;registry.terraform.io/hashicorp/aws&quot;] (close)&#45;&gt;[root] aws_subnet.private_subnet (expand)</title>
<path fill="none" stroke="black" d="M528.69,-359.7C528.69,-352.41 528.69,-343.73 528.69,-335.54"/>
<polygon fill="black" stroke="black" points="532.19,-335.62 528.69,-325.62 525.19,-335.62 532.19,-335.62"/>
</g>
<!-- [root] root -->
<g id="node12" class="node">
<title>[root] root</title>
<ellipse fill="none" stroke="black" cx="334.69" cy="-450" rx="47.39" ry="18"/>
<text text-anchor="middle" x="334.69" y="-446.3" font-family="Times,serif" font-size="14.00">[root] root</text>
</g>
<!-- [root] root&#45;&gt;[root] output.ec2_public_ip (expand) -->
<g id="edge13" class="edge">
<title>[root] root&#45;&gt;[root] output.ec2_public_ip (expand)</title>
<path fill="none" stroke="black" d="M301.51,-436.97C273.01,-426.63 231.33,-411.51 197.68,-399.31"/>
<polygon fill="black" stroke="black" points="199.08,-396.09 188.49,-395.97 196.69,-402.67 199.08,-396.09"/>
</g>
<!-- [root] root&#45;&gt;[root] provider[&quot;registry.terraform.io/hashicorp/aws&quot;] (close) -->
<g id="edge14" class="edge">
<title>[root] root&#45;&gt;[root] provider[&quot;registry.terraform.io/hashicorp/aws&quot;] (close)</title>
<path fill="none" stroke="black" d="M368.04,-436.97C396.29,-426.77 437.44,-411.93 471.02,-399.81"/>
<polygon fill="black" stroke="black" points="471.98,-403.18 480.2,-396.49 469.61,-396.6 471.98,-403.18"/>
</g>
</g>
</svg>
